<?xml version="1.0" standalone="no"?>
<!DOCTYPE svg PUBLIC "-//W3C//DTD SVG 20010904//EN"
 "http://www.w3.org/TR/2001/REC-SVG-20010904/DTD/svg10.dtd">
<svg version="1.0" xmlns="http://www.w3.org/2000/svg"
 width="360.000000pt" height="360.000000pt" viewBox="0 0 360.000000 360.000000"
 preserveAspectRatio="xMidYMid meet">
<metadata>
Created by potrace 1.11, written by Peter Selinger 2001-2013
</metadata>
<g transform="translate(0.000000,360.000000) scale(0.100000,-0.100000)"
fill="#000000" stroke="none">
<path d="M1670 3586 c0 -2 41 -20 91 -42 86 -36 92 -37 105 -20 14 20 36 13
28 -8 -3 -8 -1 -17 5 -21 6 -3 11 -1 11 4 0 6 7 11 16 11 13 0 14 -3 5 -13
-14 -18 -4 -27 31 -27 15 0 38 -6 49 -12 17 -11 23 -10 26 0 3 6 9 9 14 6 6
-3 5 -11 -2 -20 -9 -11 -8 -14 8 -14 10 0 27 6 38 14 31 21 74 25 91 9 8 -8
12 -18 9 -22 -2 -5 7 -6 20 -3 30 5 33 -13 5 -28 -22 -12 -27 -30 -7 -30 7 0
18 -9 25 -20 7 -12 23 -20 38 -20 14 0 33 -8 42 -18 18 -20 20 -21 422 -195
435 -189 593 -258 635 -277 22 -10 76 -34 119 -54 l79 -36 -6 -55 c-3 -30 -8
-59 -12 -65 -3 -5 -25 -10 -48 -10 -23 0 -60 -5 -82 -11 -22 -5 -66 -12 -97
-15 -32 -2 -79 -9 -105 -14 -27 -6 -94 -18 -150 -27 -99 -17 -101 -18 -107
-46 -3 -16 -6 -155 -6 -309 l0 -279 32 -27 c18 -15 59 -51 91 -79 l59 -53 44
32 c24 17 52 41 64 53 l20 21 -40 55 c-21 30 -47 68 -56 84 -9 17 -32 49 -50
72 -19 23 -34 46 -34 52 0 6 -4 11 -8 11 -16 0 -43 60 -37 81 7 20 7 20 27 2
11 -10 74 -87 140 -170 l119 -153 25 16 c13 9 24 18 24 20 0 2 -11 23 -25 46
-14 24 -33 59 -41 78 -19 43 -75 153 -101 200 -11 19 -24 49 -30 65 -9 27 -8
31 8 32 16 2 69 -55 69 -73 0 -4 11 -21 23 -38 13 -17 37 -53 52 -81 16 -27
49 -81 73 -119 37 -57 46 -66 54 -52 5 10 7 24 4 32 -4 11 -2 12 14 4 31 -17
33 4 5 69 -14 33 -25 68 -25 78 -1 26 -26 58 -33 41 -3 -7 -3 3 0 22 8 51 21
59 43 30 11 -14 20 -28 20 -31 0 -3 18 -45 40 -93 36 -77 42 -85 55 -72 13 12
15 62 15 310 0 224 -3 296 -12 296 -9 0 -9 3 0 12 19 19 14 56 -7 63 -23 7
-35 32 -16 32 8 0 13 -5 12 -10 -1 -5 3 -11 10 -14 9 -3 12 91 13 411 l0 416
-965 0 c-531 0 -965 -2 -965 -4z m1260 -202 c0 -16 -16 -19 -25 -4 -8 13 4 32
16 25 5 -4 9 -13 9 -21z m103 -301 c-7 -2 -19 -2 -25 0 -7 3 -2 5 12 5 14 0
19 -2 13 -5z m-3 -23 c-19 -13 -30 -13 -30 0 0 6 10 10 23 10 18 0 19 -2 7
-10z m30 -32 c0 -5 10 -7 23 -3 21 6 21 6 3 -9 -22 -18 -40 -21 -31 -6 3 6 -1
10 -9 10 -9 0 -16 7 -16 15 0 9 6 12 15 9 8 -4 15 -10 15 -16z m250 -43 c0 -8
-4 -15 -10 -15 -5 0 -10 7 -10 15 0 8 5 15 10 15 6 0 10 -7 10 -15z m-10 -49
c0 -2 -9 -6 -20 -9 -11 -3 -20 -1 -20 4 0 5 9 9 20 9 11 0 20 -2 20 -4z m7
-42 c-3 -3 -12 -4 -19 -1 -8 3 -5 6 6 6 11 1 17 -2 13 -5z m-307 -519 c0 -5
-5 -3 -10 5 -5 8 -10 20 -10 25 0 6 5 3 10 -5 5 -8 10 -19 10 -25z m282 -82
c-3 -16 -7 -22 -10 -15 -4 13 4 42 11 42 2 0 2 -12 -1 -27z m-277 -43 c3 -5 1
-10 -4 -10 -6 0 -11 5 -11 10 0 6 2 10 4 10 3 0 8 -4 11 -10z m5 -84 c-5 -5
-10 -18 -10 -29 0 -10 -4 -15 -10 -12 -5 3 -8 16 -6 28 3 12 5 31 6 42 1 20 1
20 15 1 10 -13 12 -23 5 -30z"/>
<path d="M1489 3421 l-24 -20 24 -8 c14 -6 36 -5 57 1 l34 11 -32 11 -33 11
44 1 c61 1 65 12 4 12 -35 0 -58 -6 -74 -19z"/>
<path d="M1625 3420 c-3 -5 2 -10 12 -10 11 0 24 -5 30 -11 9 -9 19 -9 40 -1
15 6 37 13 48 15 11 3 -8 5 -41 5 -34 0 -66 2 -72 6 -6 3 -13 2 -17 -4z"/>
<path d="M1795 3409 c-16 -10 -40 -19 -52 -19 -12 0 -25 -4 -28 -10 -3 -5 -17
-10 -30 -10 -13 0 -25 -5 -27 -12 -5 -13 -28 -2 -28 13 0 6 4 8 9 4 5 -3 13 0
17 6 13 21 -105 1 -139 -23 l-30 -22 5 22 c8 28 -8 29 -17 2 -3 -11 -15 -20
-25 -20 -14 0 -18 5 -13 17 6 14 3 14 -19 -3 -17 -12 -22 -21 -15 -26 7 -4 2
-11 -13 -16 -14 -5 -23 -13 -20 -18 3 -5 -3 -10 -13 -12 -9 -2 -32 -17 -49
-33 -32 -28 -48 -36 -48 -22 0 3 15 19 33 34 17 16 27 28 20 29 -6 0 -14 -4
-18 -10 -3 -5 -12 -7 -19 -4 -19 7 -66 -18 -96 -52 -21 -24 -17 -22 28 10 51
37 74 42 56 14 -5 -7 -9 -23 -9 -34 -1 -18 2 -20 17 -10 10 6 18 14 18 19 0 4
4 6 9 3 16 -10 100 24 95 39 -3 7 -1 16 5 20 6 3 11 -1 11 -9 0 -12 7 -14 33
-9 17 3 36 11 40 17 6 7 7 4 3 -6 -5 -15 -3 -16 14 -5 11 6 19 16 17 22 -2 5
19 15 47 21 28 6 60 15 70 19 15 7 18 5 12 -6 -5 -8 -2 -8 6 2 7 9 24 19 38
23 l25 7 -25 -20 c-32 -26 -24 -26 36 1 34 15 68 21 109 20 66 -1 151 -26 124
-37 -8 -3 -28 -1 -43 5 -34 13 -39 13 -31 0 3 -5 -1 -10 -9 -10 -9 0 -16 5
-16 10 0 17 -43 28 -75 19 -16 -5 -41 -21 -55 -35 l-25 -26 26 16 c28 17 89
38 89 30 0 -2 -12 -9 -26 -14 -14 -6 -23 -14 -19 -19 3 -6 -2 -14 -11 -19 -12
-7 -4 -11 31 -16 32 -4 53 -2 63 6 13 11 11 13 -9 18 -13 3 -19 9 -14 12 11 7
95 -19 110 -34 6 -6 3 -7 -10 -3 -18 5 -18 4 3 -11 35 -26 26 -36 -15 -14 -43
23 -75 28 -55 8 19 -19 14 -30 -8 -18 -11 6 -24 8 -29 6 -5 -3 -28 1 -52 10
-24 8 -58 13 -75 11 -49 -8 -164 -64 -171 -84 -8 -23 -72 -87 -80 -79 -3 3 0
13 8 23 12 15 12 16 -5 10 -18 -7 -18 -6 -1 20 l18 28 -24 -20 c-13 -11 -29
-26 -37 -32 -22 -21 -26 -15 -8 12 16 24 16 26 -9 35 -33 13 -32 13 -32 -7 1
-58 -4 -78 -13 -63 -5 8 -7 30 -4 48 4 22 2 32 -6 32 -7 0 -10 7 -6 16 4 10 1
14 -6 11 -7 -2 -11 -12 -10 -22 3 -16 2 -17 -12 -6 -14 12 -16 12 -11 0 2 -8
-7 -22 -21 -33 -26 -18 -26 -18 -19 3 9 28 -11 27 -26 -1 -7 -13 -17 -26 -22
-30 -6 -3 -11 -24 -11 -46 0 -22 -4 -38 -9 -35 -5 3 -7 -3 -4 -13 4 -11 9 -32
13 -47 5 -21 9 -25 15 -15 6 9 9 7 9 -8 0 -27 35 -58 55 -50 11 4 15 2 13 -6
-6 -16 -48 -23 -48 -9 0 6 -6 8 -14 5 -20 -8 -70 20 -97 53 -15 19 -20 22 -14
8 4 -11 8 -30 8 -42 1 -13 5 -23 11 -23 5 0 6 -3 3 -7 -4 -3 -19 6 -33 20 -15
15 -31 27 -35 27 -5 0 -9 5 -9 11 0 6 7 9 15 5 18 -6 19 7 3 33 -6 11 -8 26
-3 37 7 17 8 17 15 -6 5 -14 9 -20 9 -15 1 6 17 -8 36 -30 35 -41 56 -44 35
-5 -8 15 -8 20 -1 16 16 -10 13 20 -3 33 -8 7 -17 28 -21 49 l-8 37 -8 -28
c-4 -16 -5 -35 -2 -43 3 -8 0 -14 -5 -14 -6 0 -14 17 -17 38 -9 52 -13 61 -15
32 -1 -25 -1 -25 -15 5 l-13 30 -1 -51 c-1 -37 -5 -54 -17 -58 -9 -3 -12 -2
-9 5 4 5 1 16 -5 24 -10 12 -9 20 4 39 11 17 12 26 4 28 -7 3 -9 12 -4 24 4
10 7 20 6 22 -1 2 10 19 25 38 16 21 21 34 13 34 -7 0 -3 8 10 18 16 13 21 24
16 37 -7 20 -6 20 8 1 15 -19 16 -19 27 2 6 12 17 22 24 22 7 0 20 9 30 20 18
22 5 28 -15 7 -6 -8 -22 -11 -35 -9 -13 2 -23 -1 -23 -7 0 -6 -6 -11 -13 -11
-19 0 -80 -77 -65 -82 6 -2 8 -10 4 -16 -10 -16 -29 -15 -20 1 4 6 -2 4 -13
-6 -12 -10 -26 -38 -32 -61 -6 -24 -17 -49 -26 -56 -8 -7 -12 -17 -9 -22 4 -6
0 -14 -7 -19 -7 -4 -11 -10 -8 -13 3 -3 16 4 28 15 12 12 25 18 29 14 4 -4 0
-12 -8 -18 -17 -14 -40 -73 -40 -105 0 -12 -4 -22 -10 -22 -5 0 -7 8 -3 18 5
13 3 14 -7 5 -7 -6 -18 -9 -25 -7 -6 3 -17 -1 -23 -9 -16 -19 -50 -123 -47
-144 5 -40 18 -64 31 -59 17 7 19 -10 2 -20 -6 -4 -19 2 -29 14 -16 21 -17 20
-13 -37 4 -48 1 -60 -12 -65 -13 -5 -14 -9 -4 -22 10 -11 10 -18 2 -26 -15
-15 -16 -48 -1 -48 6 0 8 -9 4 -21 -13 -40 -19 -104 -18 -191 1 -99 -8 -110
-49 -55 -41 54 -43 60 -19 52 13 -4 21 -2 21 5 0 6 -4 9 -8 6 -4 -2 -14 -1
-21 4 -11 6 -9 10 8 19 11 7 21 20 21 30 0 10 9 30 21 45 21 26 34 96 18 96
-5 0 -9 -9 -9 -19 0 -10 -6 -21 -14 -24 -10 -4 -16 5 -21 31 -4 24 -3 38 5 40
8 3 8 8 -1 18 -6 7 -9 20 -6 28 4 10 1 13 -9 9 -7 -3 -14 0 -14 6 0 6 5 11 11
11 5 0 8 4 4 9 -3 5 0 13 6 16 20 13 -26 34 -187 86 -88 28 -168 54 -179 59
-11 4 -40 13 -65 20 -25 7 -76 23 -113 36 -38 13 -76 24 -85 24 -9 0 -30 7
-46 15 -60 32 -57 72 -55 -607 1 -343 4 -615 6 -605 5 21 23 23 23 2 0 -12 8
-15 32 -11 18 3 69 10 113 16 44 5 145 20 225 31 171 24 176 25 260 34 36 3
91 11 124 17 l58 11 -6 69 c-4 38 -11 79 -16 91 -4 12 -11 30 -14 40 -5 17 -8
17 -27 3 -16 -11 -27 -12 -41 -5 -23 12 -76 3 -100 -18 -10 -9 -24 -13 -31
-10 -18 7 -28 54 -17 82 7 17 15 20 43 17 19 -2 61 3 92 13 54 15 58 15 70 -2
33 -46 45 -54 24 -18 -13 22 -32 47 -43 56 -20 16 -20 16 1 42 16 21 23 24 31
14 6 -7 11 -22 11 -32 -1 -11 8 -45 19 -75 11 -30 26 -80 34 -110 l15 -55 13
40 c9 32 9 61 1 130 -6 50 -12 134 -12 188 0 61 -4 97 -11 97 -6 0 -8 10 -4
24 4 15 1 26 -7 29 -9 4 -9 6 1 6 6 1 12 13 12 27 0 16 -4 23 -11 18 -8 -5 -8
-1 0 14 6 12 8 37 5 57 -6 39 12 99 27 89 5 -3 9 0 9 5 0 6 12 11 26 11 14 0
39 11 56 25 16 14 26 25 21 25 -5 0 -17 16 -26 35 -11 22 -24 35 -36 35 -11 0
-27 10 -36 23 -8 12 -19 22 -23 22 -9 0 -3 47 9 61 5 6 6 14 2 17 -3 4 0 7 8
7 17 0 42 -37 34 -50 -4 -6 -1 -10 4 -10 6 0 11 -7 11 -15 0 -9 6 -12 15 -9
11 5 15 -2 16 -27 1 -22 3 -27 6 -14 7 25 49 76 57 68 3 -4 6 -1 6 5 0 7 10
12 23 13 21 1 21 1 -3 8 -14 4 -24 13 -22 20 2 9 -4 10 -19 6 -15 -5 -20 -3
-17 6 3 8 19 15 37 17 22 2 31 0 26 -7 -3 -6 -2 -11 4 -11 5 0 11 4 13 9 2 5
16 13 32 17 26 6 27 5 17 -14 -10 -18 -9 -21 4 -16 8 3 12 10 9 15 -3 5 11 9
30 9 20 0 36 4 36 8 0 4 26 5 58 2 39 -5 68 -2 91 7 24 10 51 13 91 8 47 -5
58 -4 63 9 3 8 2 18 -3 21 -6 4 -10 -1 -10 -10 0 -9 -5 -13 -10 -10 -8 5 -7
11 1 21 6 7 15 12 19 9 5 -3 11 -1 15 5 12 19 26 11 15 -9 -14 -26 -13 -31 6
-31 8 0 12 5 9 10 -4 7 3 9 22 5 21 -5 24 -4 13 4 -13 9 -13 11 3 11 9 0 23
12 29 26 13 28 15 25 -58 84 -7 5 -15 6 -18 2 -10 -9 25 71 37 86 8 11 12 11
18 0 7 -10 9 -9 9 5 0 21 -23 22 -55 1 -17 -11 -25 -12 -25 -5 0 7 -5 9 -10 6
-6 -4 -7 -11 -4 -17 4 -7 2 -8 -4 -4 -6 4 -9 13 -6 20 6 16 76 53 117 61 15 3
27 12 27 19 0 15 50 36 84 36 21 -1 21 -1 -2 -20 l-22 -18 30 -7 c16 -4 30
-11 30 -16 0 -6 -10 -8 -22 -5 -13 3 -5 -3 17 -13 31 -15 35 -20 18 -20 -12
-1 -33 3 -47 9 -19 7 -26 6 -26 -3 0 -14 -82 -66 -112 -70 -11 -2 -23 -10 -28
-17 -11 -17 54 -65 76 -56 14 5 66 -38 57 -48 -3 -2 9 -12 26 -21 17 -8 31
-22 31 -30 0 -7 9 -17 20 -20 11 -4 19 -14 18 -22 -2 -9 3 -18 11 -21 8 -3 11
0 7 6 -3 6 -1 14 5 17 6 5 10 0 9 -11 -4 -34 0 -44 15 -44 8 0 15 -7 15 -15 0
-9 6 -18 14 -21 8 -3 12 -13 9 -22 -4 -14 -3 -15 5 -2 6 8 8 18 6 22 -10 16
10 7 34 -14 19 -18 24 -19 19 -6 -4 12 -2 15 9 11 11 -4 12 -9 4 -18 -11 -13
-4 -61 11 -81 5 -6 22 -10 39 -9 26 2 30 -2 31 -24 1 -23 2 -22 12 9 7 24 12
29 14 18 3 -10 8 -18 12 -18 4 0 16 -9 28 -19 23 -22 84 -32 90 -14 5 13 -32
27 -47 18 -5 -3 -10 3 -10 14 0 23 -16 28 -23 9 -2 -7 -7 -10 -11 -7 -14 13 8
40 35 46 32 6 34 10 18 33 -8 11 -12 12 -16 3 -2 -7 -13 -13 -23 -13 -11 0
-23 -6 -27 -14 -12 -19 -53 -31 -53 -14 0 17 20 47 20 31 0 -7 5 -13 10 -13 6
0 10 9 10 20 0 26 39 48 51 29 6 -10 9 -10 9 -2 0 7 -10 17 -21 24 -15 8 -19
8 -15 0 4 -6 2 -11 -3 -11 -15 0 -14 23 1 38 9 9 4 9 -23 2 -42 -12 -42 -12
-34 0 3 6 0 10 -8 10 -20 0 -17 29 4 35 11 4 15 12 12 26 -3 11 -8 18 -11 15
-2 -3 -14 6 -25 20 -15 20 -17 28 -7 34 8 5 9 10 1 14 -7 4 -4 13 7 25 31 32
92 11 135 -46 17 -22 17 -22 0 -16 -10 3 -35 19 -55 35 -40 31 -50 28 -20 -5
17 -20 17 -20 -13 -2 l-30 17 27 -25 c15 -14 24 -28 21 -31 -4 -3 4 -6 16 -6
12 0 19 -4 16 -10 -4 -6 -11 -8 -16 -5 -5 3 -6 0 -3 -8 3 -8 1 -18 -5 -22 -6
-3 -11 -13 -11 -21 0 -8 5 -12 10 -9 6 4 8 10 5 14 -2 5 7 6 20 3 26 -4 35
-22 13 -23 -7 0 -2 -5 12 -10 20 -8 22 -12 10 -19 -15 -9 -13 -10 38 -26 20
-6 32 4 26 21 -4 8 -11 12 -17 8 -6 -4 -8 3 -4 19 4 15 0 33 -9 47 -12 16 -13
25 -5 35 6 7 8 16 4 19 -3 4 -1 13 5 20 7 8 9 17 5 20 -3 4 3 7 14 7 11 0 26
-7 33 -15 9 -11 16 -12 25 -5 6 5 15 7 18 3 4 -3 7 -2 7 4 0 6 -7 14 -16 17
-8 3 -13 10 -10 15 4 5 -8 20 -26 32 -18 12 -35 24 -37 25 -1 2 3 15 11 31 13
25 12 30 -3 47 -13 13 -26 17 -43 12 -14 -3 -27 -2 -31 4 -5 9 4 12 60 23 18
3 17 5 -7 15 -14 6 -29 16 -33 22 -4 6 -18 15 -31 20 -36 14 -29 30 12 30 36
0 36 0 20 25 -9 13 -16 33 -16 44 0 15 -11 23 -42 32 -24 7 -50 18 -58 25 -8
6 -23 9 -34 5 -20 -8 -86 9 -86 21 0 5 -8 8 -19 8 -10 0 -35 7 -54 15 -43 18
-35 18 -72 -6z m215 -69 c0 -5 -4 -10 -10 -10 -5 0 -10 5 -10 10 0 6 5 10 10
10 6 0 10 -4 10 -10z m-550 -19 c0 -11 -31 -24 -39 -16 -3 3 1 10 9 15 19 12
30 12 30 1z m620 -5 c0 -3 -4 -8 -10 -11 -5 -3 -10 -1 -10 4 0 6 5 11 10 11 6
0 10 -2 10 -4z m-70 -51 c0 -20 15 -19 47 2 26 17 26 17 15 -4 -14 -25 -42
-37 -56 -23 -5 5 -18 10 -28 10 -18 0 -24 11 -11 23 12 13 33 7 33 -8z m-365
-55 c-3 -5 -11 -10 -16 -10 -6 0 -7 5 -4 10 3 6 11 10 16 10 6 0 7 -4 4 -10z
m261 -9 c-3 -5 0 -9 7 -8 40 1 61 -4 48 -12 -7 -5 -21 -7 -31 -4 -9 3 -23 -1
-31 -9 -18 -16 -64 -24 -55 -9 4 7 -1 11 -12 11 -11 0 -23 7 -26 16 -5 13 -1
15 23 12 17 -2 28 -1 25 4 -3 4 9 8 26 8 17 0 29 -4 26 -9z m199 -21 c3 -5 3
-10 -2 -10 -4 0 -18 -3 -29 -6 -14 -4 -23 0 -27 10 -5 12 0 16 23 16 16 0 32
-4 35 -10z m-82 -17 c18 -9 36 -16 40 -15 5 1 6 -2 2 -8 -8 -13 -45 -13 -45
-1 0 5 -9 13 -20 16 -11 3 -20 11 -20 16 0 13 6 12 43 -8z m-683 -5 c-1 -7 -7
-24 -15 -38 -14 -24 -14 -24 -15 -3 0 28 10 53 21 53 5 0 9 -6 9 -12z m786
-13 c-3 -9 1 -18 8 -21 13 -5 19 -44 6 -44 -3 0 -18 12 -34 26 -27 24 -28 26
-10 39 25 19 38 19 30 0z m-186 -5 c0 -5 -6 -10 -12 -10 -7 0 -23 -3 -35 -6
-13 -4 -23 -2 -23 4 0 6 12 13 28 15 15 2 30 5 35 6 4 0 7 -3 7 -9z m-165 -30
c12 0 27 -6 34 -12 11 -11 12 -8 6 12 -7 22 -6 23 8 12 9 -8 13 -20 10 -28 -6
-16 -19 -18 -28 -4 -6 9 -35 3 -45 -10 -3 -4 -26 -14 -51 -22 -43 -15 -46 -15
-45 1 1 16 14 31 29 31 5 0 5 -5 1 -11 -4 -7 2 -7 17 1 34 18 38 24 9 15 -25
-8 -25 -8 -6 14 13 15 23 18 30 11 5 -5 19 -10 31 -10z m145 -4 c0 -8 -7 -16
-15 -20 -15 -5 -21 14 -8 27 11 12 23 8 23 -7z m-899 -29 c-13 -13 -26 -3 -16
12 3 6 11 8 17 5 6 -4 6 -10 -1 -17z m-31 3 c0 -5 -5 -10 -11 -10 -5 0 -7 5
-4 10 3 6 8 10 11 10 2 0 4 -4 4 -10z m289 -37 c-1 -42 -2 -44 -9 -21 -7 25
-3 68 6 68 2 0 4 -21 3 -47z m581 37 c0 -5 7 -10 15 -10 15 0 20 -12 9 -22 -3
-4 -14 2 -25 13 -21 21 -24 29 -9 29 6 0 10 -4 10 -10z m145 3 c-11 -3 -25
-10 -32 -15 -7 -5 -17 -7 -23 -3 -5 3 -10 0 -10 -8 0 -7 -16 -21 -35 -30 -24
-11 -35 -13 -35 -5 0 6 -12 1 -27 -13 -20 -18 -25 -20 -20 -6 4 9 2 17 -3 17
-6 0 -9 6 -7 13 1 7 -6 11 -18 9 -20 -4 -20 -4 0 11 24 18 35 13 35 -15 0 -16
3 -18 14 -9 8 6 18 11 22 10 21 -3 55 15 50 27 -3 8 0 11 8 8 8 -3 17 -1 21 5
3 6 23 10 43 10 22 -1 29 -3 17 -6z m183 -21 c6 -18 -15 -14 -22 4 -4 10 -1
14 6 12 6 -2 14 -10 16 -16z m-93 -4 c14 -6 25 -15 25 -20 0 -7 -31 8 -59 29
-10 7 10 2 34 -9z m-51 -10 c-3 -5 -10 -6 -15 -3 -5 4 -9 1 -9 -4 0 -6 5 -11
10 -11 6 0 10 -11 10 -25 0 -14 -4 -25 -10 -25 -5 0 -10 5 -10 10 0 6 -7 10
-15 10 -9 0 -18 7 -22 16 -5 14 -8 15 -17 3 -13 -16 -56 -23 -56 -9 0 6 6 11
13 12 41 5 68 18 61 29 -3 6 10 9 30 7 19 -1 32 -6 30 -10z m112 -9 c3 -6 15
-9 25 -6 10 3 22 1 25 -4 9 -15 -41 -10 -62 6 -10 8 -14 15 -7 15 6 0 15 -5
19 -11z m-73 -26 c-7 -2 -19 -2 -25 0 -7 3 -2 5 12 5 14 0 19 -2 13 -5z m-503
-18 c0 -8 -4 -15 -10 -15 -5 0 -7 7 -4 15 4 8 8 15 10 15 2 0 4 -7 4 -15z
m-570 -11 c0 -8 -8 -23 -17 -32 -16 -16 -16 -16 -10 1 4 10 7 25 7 33 0 8 5
14 10 14 6 0 10 -7 10 -16z m1190 12 c0 -2 -7 -6 -15 -10 -8 -3 -15 -1 -15 4
0 6 7 10 15 10 8 0 15 -2 15 -4z m50 -17 c0 -14 -16 -11 -29 5 -10 12 -8 13 8
9 12 -3 21 -9 21 -14z m-485 1 c-3 -5 -10 -10 -16 -10 -5 0 -9 5 -9 10 0 6 7
10 16 10 8 0 12 -4 9 -10z m231 -4 c19 -20 18 -27 -3 -19 -17 7 -17 6 -1 -19
17 -26 10 -46 -11 -33 -20 12 -22 -18 -3 -38 11 -12 23 -33 27 -46 6 -20 4
-23 -10 -17 -12 4 -16 2 -12 -8 4 -11 -2 -12 -30 -6 -19 5 -41 6 -48 3 -19 -7
-8 30 16 56 25 26 24 29 -8 42 -26 10 -27 12 -8 19 20 7 20 7 -2 14 -53 17
-21 62 38 54 16 -3 29 -1 29 4 0 12 10 10 26 -6z m-221 -26 c3 -5 -1 -10 -9
-10 -9 0 -16 5 -16 10 0 6 4 10 9 10 6 0 13 -4 16 -10z m420 -1 c11 -17 -1
-21 -15 -4 -8 9 -8 15 -2 15 6 0 14 -5 17 -11z m-345 -8 c0 -5 -7 -11 -14 -14
-10 -4 -13 -1 -9 9 6 15 23 19 23 5z m-870 -46 c0 -8 -2 -15 -4 -15 -2 0 -11
-3 -20 -6 -10 -4 -16 -1 -16 9 0 14 13 24 33 26 4 1 7 -6 7 -14z m210 -19 c-6
-6 -15 -4 -25 4 -23 19 -18 29 9 17 15 -7 21 -16 16 -21z m855 -16 c3 -5 1
-10 -4 -10 -6 0 -11 5 -11 10 0 6 2 10 4 10 3 0 8 -4 11 -10z m-1021 -65 c-6
-16 -24 -21 -24 -7 0 11 11 22 21 22 5 0 6 -7 3 -15z m1016 -18 c0 -18 -2 -19
-10 -7 -13 20 -13 43 0 35 6 -3 10 -16 10 -28z m14 -53 c9 -22 -3 -32 -14 -14
-12 19 -12 30 -1 30 5 0 12 -7 15 -16z m-1098 -61 c-11 -11 -17 4 -9 23 7 18
8 18 11 1 2 -10 1 -21 -2 -24z m-36 -23 c0 -5 -2 -10 -4 -10 -3 0 -8 5 -11 10
-3 6 -1 10 4 10 6 0 11 -4 11 -10z m-73 -50 c2 -30 -23 -85 -32 -71 -4 7 -3
20 1 29 4 9 6 27 5 40 -2 13 3 22 11 22 8 0 14 -9 15 -20z m27 -5 c3 -8 1 -15
-4 -15 -6 0 -10 7 -10 15 0 8 2 15 4 15 2 0 6 -7 10 -15z m-34 -100 c0 -8 -4
-15 -10 -15 -5 0 -10 7 -10 15 0 8 5 15 10 15 6 0 10 -7 10 -15z m-495 -45
l20 -9 -20 0 c-11 0 -27 4 -35 9 -13 9 -13 10 0 9 8 0 24 -4 35 -9z m375 -24
c-12 -12 -40 -17 -40 -7 0 12 8 17 29 17 14 0 17 -4 11 -10z m-310 -30 c0 -3
-4 -8 -10 -11 -5 -3 -10 -1 -10 4 0 6 5 11 10 11 6 0 10 -2 10 -4z m318 -15
c3 -8 -1 -12 -9 -9 -7 2 -15 10 -17 17 -3 8 1 12 9 9 7 -2 15 -10 17 -17z m82
-42 c0 -10 -4 -19 -10 -19 -5 0 -10 12 -10 26 0 14 4 23 10 19 6 -3 10 -15 10
-26z m40 -31 c0 -5 -4 -8 -10 -8 -5 0 -10 10 -10 23 0 18 2 19 10 7 5 -8 10
-18 10 -22z m-147 -463 c1 -5 -6 -11 -15 -13 -11 -2 -18 3 -18 13 0 17 30 18
33 0z m-680 -126 c-11 -11 -16 39 -5 55 4 6 8 -1 10 -18 2 -16 0 -32 -5 -37z"/>
<path d="M1990 3019 c0 -5 5 -7 10 -4 6 3 10 8 10 11 0 2 -4 4 -10 4 -5 0 -10
-5 -10 -11z"/>
<path d="M1895 2950 c-3 -5 -1 -10 4 -10 6 0 11 5 11 10 0 6 -2 10 -4 10 -3 0
-8 -4 -11 -10z"/>
<path d="M1926 2941 c-3 -5 5 -11 19 -13 20 -4 23 -3 14 8 -13 16 -25 18 -33
5z"/>
<path d="M1324 3400 c-18 -4 -45 -17 -61 -28 -17 -12 -33 -19 -37 -15 -3 3 -6
1 -6 -5 0 -13 71 -14 91 -1 11 7 9 9 -6 9 -31 0 4 20 36 20 15 0 29 7 33 15 6
16 -2 17 -50 5z"/>
<path d="M1364 3363 c-16 -13 -35 -23 -41 -23 -7 0 -13 -4 -13 -10 0 -20 42
-9 66 17 13 14 41 30 62 34 l37 7 -41 -1 c-27 0 -51 -9 -70 -24z"/>
<path d="M1245 3320 c-3 -6 1 -7 9 -4 18 7 21 14 7 14 -6 0 -13 -4 -16 -10z"/>
<path d="M1345 3300 c-3 -5 1 -10 10 -10 9 0 13 5 10 10 -3 6 -8 10 -10 10 -2
0 -7 -4 -10 -10z"/>
<path d="M1542 3293 c-6 -2 -10 -9 -7 -13 8 -13 -26 -28 -55 -25 -28 3 -71
-19 -87 -44 -9 -14 -5 -19 24 -28 30 -9 37 -8 51 8 9 11 22 19 30 19 7 0 16 8
19 18 11 29 41 63 47 53 4 -5 -1 -16 -9 -24 -8 -9 -15 -20 -15 -25 0 -13 71 3
115 27 l34 18 -25 12 c-25 11 -98 14 -122 4z m82 -12 c3 -5 -1 -12 -10 -15
-25 -10 -34 -7 -34 9 0 16 35 21 44 6z"/>
<path d="M1176 3265 c-8 -8 -22 -15 -30 -15 -19 0 -42 -34 -49 -75 -4 -16 -4
-24 -1 -17 3 6 10 9 16 6 6 -4 8 -1 6 7 -3 8 1 26 9 42 15 30 25 36 17 10 -4
-14 -1 -12 13 4 10 12 27 29 38 37 11 9 15 16 8 16 -6 0 -18 -7 -27 -15z"/>
<path d="M1214 3218 c-30 -35 -61 -108 -45 -108 5 0 11 12 14 28 3 15 17 44
31 65 29 42 29 48 0 15z"/>
<path d="M1067 3173 c-9 -9 -9 -43 1 -43 4 0 7 11 7 25 0 14 0 25 -1 25 0 0
-4 -3 -7 -7z"/>
<path d="M1675 3130 c4 -6 11 -8 16 -5 14 9 11 15 -7 15 -8 0 -12 -5 -9 -10z"/>
<path d="M1171 3074 c0 -11 3 -14 6 -6 3 7 2 16 -1 19 -3 4 -6 -2 -5 -13z"/>
<path d="M894 2970 c-12 -5 -26 -15 -30 -22 -6 -11 -5 -11 8 0 9 7 20 12 24
11 19 -3 34 2 34 11 0 12 -7 12 -36 0z"/>
<path d="M1682 2916 c1 -19 5 -33 8 -31 7 4 1 65 -6 65 -3 0 -4 -15 -2 -34z"/>
<path d="M2055 2910 c-3 -5 -2 -10 4 -10 5 0 13 5 16 10 3 6 2 10 -4 10 -5 0
-13 -4 -16 -10z"/>
<path d="M2277 2913 c-8 -7 2 -54 16 -70 6 -9 6 -13 -2 -13 -6 0 -11 -7 -11
-16 0 -23 24 -11 28 14 2 11 -4 32 -13 45 -12 19 -13 26 -3 29 8 3 8 7 1 11
-5 4 -13 4 -16 0z"/>
<path d="M1195 2840 c3 -5 12 -7 20 -3 21 7 19 13 -6 13 -11 0 -18 -4 -14 -10z"/>
<path d="M905 2800 c4 -6 11 -8 16 -5 14 9 11 15 -7 15 -8 0 -12 -5 -9 -10z"/>
<path d="M2300 2771 c0 -6 4 -12 8 -15 5 -3 9 1 9 9 0 8 -4 15 -9 15 -4 0 -8
-4 -8 -9z"/>
<path d="M1936 2692 c-3 -6 1 -31 9 -55 8 -25 12 -53 8 -63 -4 -12 -3 -15 5
-10 7 4 12 26 12 49 -1 45 -23 97 -34 79z"/>
<path d="M2330 2638 c-11 -12 -18 -28 -16 -34 2 -6 -6 -16 -20 -23 -28 -12
-29 -19 -11 -54 10 -18 17 -23 28 -17 12 8 12 13 1 30 -10 17 -10 21 3 26 8 4
15 12 15 20 0 8 4 14 9 14 5 0 11 14 13 30 5 36 5 36 -22 8z"/>
<path d="M2245 2590 c-3 -5 1 -10 10 -10 9 0 13 5 10 10 -3 6 -8 10 -10 10 -2
0 -7 -4 -10 -10z"/>
<path d="M2156 2582 c-3 -6 -1 -14 5 -17 15 -10 25 3 12 16 -7 7 -13 7 -17 1z"/>
<path d="M2235 2560 c-3 -5 -1 -10 4 -10 6 0 11 5 11 10 0 6 -2 10 -4 10 -3 0
-8 -4 -11 -10z"/>
<path d="M2223 2533 c11 -3 16 -11 13 -19 -3 -8 -1 -14 4 -14 6 0 10 9 10 20
0 14 -6 20 -22 19 -19 -1 -19 -2 -5 -6z"/>
<path d="M2262 2500 c0 -14 2 -19 5 -12 2 6 2 18 0 25 -3 6 -5 1 -5 -13z"/>
<path d="M2216 2410 c9 -61 22 -92 34 -85 17 11 11 48 -16 90 l-24 40 6 -45z"/>
<path d="M2251 2424 c0 -11 3 -14 6 -6 3 7 2 16 -1 19 -3 4 -6 -2 -5 -13z"/>
<path d="M751 2346 c-8 -9 -11 -19 -7 -23 9 -9 29 13 24 27 -2 8 -8 7 -17 -4z"/>
<path d="M2261 2301 c-12 -8 -10 -16 7 -53 l22 -43 -1 35 c-1 50 -11 71 -28
61z"/>
<path d="M2050 2180 c0 -6 7 -10 15 -10 8 0 15 2 15 4 0 2 -7 6 -15 10 -8 3
-15 1 -15 -4z"/>
<path d="M1930 2165 c0 -8 9 -10 25 -7 14 2 25 6 25 7 0 1 -11 5 -25 7 -16 3
-25 1 -25 -7z"/>
<path d="M1828 2148 c-16 -5 -28 -14 -28 -19 0 -5 14 -3 30 6 17 9 30 18 30
20 0 3 -1 5 -2 4 -2 0 -15 -5 -30 -11z"/>
<path d="M1884 2135 c-10 -8 -14 -15 -8 -15 5 0 19 7 30 15 10 8 14 15 8 15
-5 0 -19 -7 -30 -15z"/>
<path d="M1058 2098 c-35 -12 -37 -27 -3 -20 14 2 45 -1 69 -8 48 -13 109 -5
103 13 -6 20 -40 20 -53 2 -12 -15 -17 -16 -43 -5 -17 7 -28 16 -25 21 7 11
-13 10 -48 -3z"/>
<path d="M978 2083 c-24 -28 -38 -60 -38 -85 1 -22 2 -21 17 6 20 38 44 96 40
96 -2 0 -11 -8 -19 -17z"/>
<path d="M1774 2045 c-24 -18 -19 -18 31 0 33 12 36 14 14 15 -14 0 -34 -7
-45 -15z"/>
<path d="M1827 2023 c-12 -11 -8 -70 6 -80 6 -6 24 -13 39 -17 21 -5 30 -1 42
16 9 12 16 30 16 40 0 25 13 23 60 -8 22 -15 42 -25 45 -23 18 19 -104 79
-160 79 -23 0 -45 -3 -48 -7z m53 -32 c0 -6 -4 -13 -10 -16 -5 -3 -10 1 -10 9
0 9 5 16 10 16 6 0 10 -4 10 -9z"/>
<path d="M1280 1999 c41 -10 97 -30 124 -43 43 -21 46 -22 29 -4 -27 26 -145
68 -191 67 -31 0 -24 -3 38 -20z"/>
<path d="M1196 1975 c-51 -18 -110 -67 -114 -94 -3 -16 9 -9 47 32 40 41 51
48 51 32 1 -28 26 -59 41 -49 8 5 10 3 4 -6 -6 -10 -1 -11 21 -6 36 9 41 14
49 47 4 18 1 31 -10 43 -20 19 -37 20 -89 1z m64 -36 c0 -5 -7 -9 -15 -9 -15
0 -20 12 -9 23 8 8 24 -1 24 -14z"/>
<path d="M2950 1732 c0 -55 4 -102 9 -104 5 -1 19 -25 32 -53 13 -27 27 -48
30 -45 3 3 14 -2 24 -10 17 -14 18 -13 11 10 -18 66 -18 118 -1 148 18 29 18
31 -6 59 -13 15 -41 43 -61 62 l-38 33 0 -100z"/>
<path d="M2533 1735 c-3 -9 -3 -18 -1 -21 3 -3 8 4 11 16 6 23 -1 27 -10 5z"/>
<path d="M2455 1635 c-16 -13 -27 -27 -24 -29 3 -3 21 8 39 24 40 36 28 40
-15 5z"/>
<path d="M3516 1635 c-3 -8 -1 -17 3 -20 5 -3 11 2 15 10 3 8 1 17 -3 20 -5 3
-11 -2 -15 -10z"/>
<path d="M866 1505 c4 -8 11 -15 16 -15 6 0 5 6 -2 15 -7 8 -14 15 -16 15 -2
0 -1 -7 2 -15z"/>
<path d="M3505 1509 c-4 -6 -5 -12 -2 -15 2 -3 7 2 10 11 7 17 1 20 -8 4z"/>
<path d="M731 1487 c-14 -26 -19 -49 -20 -92 -1 -23 -4 -27 -11 -15 -5 8 -10
11 -10 5 0 -6 -3 -5 -8 1 -4 6 -22 19 -40 28 -30 15 -42 16 -105 6 -83 -14
-147 -36 -232 -78 -33 -16 -77 -37 -97 -45 -26 -11 -38 -22 -38 -35 0 -22 67
-93 111 -119 16 -10 29 -21 29 -25 0 -4 5 -8 11 -8 19 0 99 -40 99 -50 0 -15
-12 -13 -123 24 -184 61 -213 68 -234 52 -7 -5 -13 -5 -13 0 0 5 -4 3 -9 -5
-8 -13 15 -102 40 -156 17 -38 18 -84 0 -88 -9 -1 16 -13 54 -26 39 -13 95
-36 125 -52 91 -47 171 -79 194 -78 20 0 21 1 1 9 -14 6 -16 9 -5 10 8 2 17 2
20 2 3 0 7 11 8 26 1 14 7 31 12 36 6 6 10 16 10 23 0 8 14 43 30 78 17 35 30
69 30 74 0 6 14 30 30 53 55 77 80 117 80 128 0 5 4 10 8 10 15 0 42 70 62
160 30 133 25 210 -9 147z"/>
<path d="M1652 1440 c-45 -47 -64 -49 -114 -15 -38 26 -56 29 -95 19 -34 -9
-27 -24 11 -24 19 0 53 -9 76 -19 52 -23 85 -16 132 28 18 17 47 35 63 40 l30
9 -32 1 c-24 1 -40 -8 -71 -39z"/>
<path d="M3472 1470 c-1 -8 5 -26 13 -40 14 -25 14 -25 15 -2 0 12 -4 22 -9
22 -5 0 -12 8 -14 18 -3 12 -5 12 -5 2z"/>
<path d="M3270 1392 c0 -20 -4 -31 -10 -27 -5 3 -10 1 -10 -4 0 -6 -7 -11 -15
-11 -8 0 -15 5 -15 11 0 8 -5 7 -16 -2 -9 -8 -13 -21 -10 -35 5 -19 0 -27 -23
-39 -37 -19 -41 -19 -41 0 0 9 -6 18 -14 21 -19 7 -96 -14 -96 -27 0 -6 -6 -9
-12 -6 -7 2 -24 -4 -37 -14 -13 -11 -31 -19 -40 -19 -20 0 -71 -76 -71 -106 0
-29 -37 -91 -61 -104 -43 -24 -2 -77 75 -98 46 -13 56 -9 56 24 0 26 18 32 39
12 11 -11 12 -7 8 22 -5 41 7 72 27 64 11 -4 13 3 9 37 -4 30 -2 45 9 53 7 6
15 21 16 34 3 42 5 49 16 50 46 6 83 16 93 24 13 11 53 -6 53 -23 0 -11 25
-39 34 -39 3 0 6 14 6 30 0 17 5 30 10 30 6 0 10 7 10 15 0 9 7 18 15 21 8 4
13 10 10 14 -3 4 2 14 11 21 17 14 12 49 -12 83 -13 20 -14 19 -14 -12z m-210
-126 c0 -3 -4 -8 -10 -11 -5 -3 -10 -1 -10 4 0 6 5 11 10 11 6 0 10 -2 10 -4z"/>
<path d="M3380 1410 c0 -5 7 -10 16 -10 8 0 12 5 9 10 -3 6 -10 10 -16 10 -5
0 -9 -4 -9 -10z"/>
<path d="M3351 1382 c-1 -12 8 -39 19 -59 l20 -38 0 33 c0 17 -4 32 -9 32 -5
0 -14 12 -19 28 -10 24 -10 25 -11 4z"/>
<path d="M2355 1308 c-4 -29 -9 -79 -11 -110 l-4 -58 23 23 c12 12 23 27 24
32 13 80 14 125 4 143 -18 34 -28 26 -36 -30z"/>
<path d="M1928 1304 c-34 -17 -48 -30 -48 -45 0 -20 3 -19 34 9 19 17 43 35
53 40 10 6 16 13 13 15 -3 3 -26 -6 -52 -19z"/>
<path d="M2541 1291 c-8 -5 -10 -14 -6 -21 6 -9 10 -8 17 4 12 21 7 28 -11 17z"/>
<path d="M1290 1240 c70 -56 150 -94 108 -52 -10 10 -10 15 2 22 12 8 9 10
-12 10 -15 0 -43 9 -63 20 -46 26 -67 25 -35 0z"/>
<path d="M3356 1237 c3 -10 9 -15 12 -12 3 3 0 11 -7 18 -10 9 -11 8 -5 -6z"/>
<path d="M943 1185 c-3 -9 -3 -18 -1 -21 3 -3 8 4 11 16 6 23 -1 27 -10 5z"/>
<path d="M3235 1110 c-3 -5 -1 -10 4 -10 6 0 11 5 11 10 0 6 -2 10 -4 10 -3 0
-8 -4 -11 -10z"/>
<path d="M3210 1075 c13 -16 30 -16 33 -1 1 5 -9 11 -22 13 -20 3 -22 1 -11
-12z"/>
<path d="M1011 1057 c-6 -8 -8 -17 -5 -20 4 -3 3 -14 -2 -24 -4 -10 -8 -32 -9
-49 -5 -86 -33 -147 -64 -136 -10 3 -12 0 -8 -12 6 -14 -2 -19 -29 -15 -7 1
-24 -22 -24 -33 0 -15 62 13 113 51 29 23 58 41 64 41 18 0 44 37 37 54 -5 12
-2 15 10 10 12 -5 15 -2 10 10 -3 9 -10 13 -15 10 -5 -3 -9 0 -9 5 0 6 7 11
15 11 12 0 11 7 -6 38 -23 41 -48 72 -59 72 -4 0 -13 -6 -19 -13z"/>
<path d="M3186 1023 c-11 -11 -6 -23 9 -23 8 0 15 4 15 9 0 13 -16 22 -24 14z"/>
<path d="M897 973 c-3 -16 -1 -32 4 -37 5 -6 9 4 9 27 0 44 -6 48 -13 10z"/>
<path d="M1184 915 c-4 -9 -1 -29 6 -45 22 -52 239 -251 320 -292 39 -20 80
-24 80 -7 0 8 5 8 15 -1 19 -16 97 -6 171 21 51 19 150 85 194 129 23 23 27
38 5 20 -8 -7 -15 -10 -15 -7 0 4 -21 -3 -47 -14 -227 -99 -404 -79 -592 65
-62 48 -128 121 -123 137 4 15 -8 10 -14 -6z"/>
<path d="M887 913 c-10 -9 -7 -64 3 -88 8 -19 11 -18 14 4 0 5 4 12 8 16 4 4
0 14 -8 22 -8 9 -12 23 -9 34 7 20 3 24 -8 12z"/>
<path d="M3498 903 c12 -2 30 -2 40 0 9 3 -1 5 -23 4 -22 0 -30 -2 -17 -4z"/>
<path d="M1109 893 c-10 -3 -20 -18 -23 -38 -4 -19 -14 -39 -24 -44 -16 -10
-15 -10 2 -11 16 0 15 -3 -8 -21 -21 -16 -24 -24 -16 -35 7 -7 8 -19 4 -26 -5
-7 -9 -25 -9 -39 0 -15 -6 -33 -13 -41 -14 -17 -6 -29 14 -21 9 3 14 -1 14
-13 0 -23 6 -16 14 19 4 16 3 26 -2 23 -5 -3 -7 6 -4 19 8 44 22 38 18 -7 -2
-24 0 -79 4 -123 l7 -80 1 73 c2 92 19 252 33 315 12 53 12 55 -12 50z"/>
<path d="M0 691 c0 -138 2 -161 15 -161 10 0 15 -7 13 -17 -2 -12 4 -19 19
-21 14 -2 20 -8 16 -18 -3 -9 1 -14 11 -14 9 0 19 -7 22 -15 5 -11 10 -13 19
-5 8 7 17 4 30 -10 11 -12 28 -19 44 -18 19 2 25 -1 23 -13 -1 -12 6 -16 30
-17 18 0 38 -8 44 -16 6 -9 16 -16 21 -16 6 0 24 -7 39 -15 16 -8 37 -15 47
-15 9 0 17 -4 17 -10 0 -5 5 -10 11 -10 5 0 7 5 4 10 -3 6 -1 10 5 10 8 0 11
-22 8 -70 -2 -38 1 -65 5 -61 5 5 10 41 12 81 2 40 6 74 9 77 3 3 38 -3 78
-13 40 -9 80 -18 89 -19 22 -2 85 -52 76 -61 -3 -4 -13 -2 -21 5 -11 9 -15 7
-19 -9 -6 -23 11 -39 23 -21 5 9 10 8 19 -3 7 -8 10 -20 6 -26 -3 -5 -1 -10 4
-10 6 0 11 20 11 45 0 39 4 47 24 55 33 12 46 34 15 25 -23 -6 -22 -5 5 19 16
14 35 26 42 26 19 0 27 -19 15 -34 -9 -10 -8 -15 3 -19 10 -4 13 -16 9 -45 -4
-33 -1 -42 23 -63 37 -32 42 -51 13 -47 -12 2 -24 -3 -27 -10 -3 -10 3 -11 25
-6 15 4 29 11 31 16 2 4 11 8 20 8 13 0 14 -2 4 -9 -10 -6 -10 -10 1 -20 8 -6
21 -10 28 -9 8 2 13 -3 12 -9 -2 -7 6 -13 17 -13 18 0 20 7 19 95 0 79 -3 95
-16 95 -10 0 -13 6 -9 16 4 9 2 22 -2 28 -13 16 -23 76 -13 76 15 0 19 38 5
44 -8 3 -14 2 -14 -3 0 -4 -18 -19 -40 -34 -38 -25 -41 -25 -71 -10 l-32 16
33 28 c18 16 39 29 46 29 19 0 18 10 -3 25 -18 13 -9 40 10 28 7 -4 4 5 -5 19
-14 21 -15 28 -4 37 27 23 14 113 -14 96 -13 -8 -61 -15 -115 -15 -22 0 -26
-3 -15 -10 23 -14 4 -23 -21 -10 -18 10 -21 10 -16 -2 4 -11 -9 -22 -39 -38
-50 -24 -67 -21 -40 9 17 18 16 19 -21 25 -91 13 -132 11 -162 -12 l-30 -22
-28 26 c-27 25 -27 26 -8 40 10 8 14 14 9 14 -6 0 -20 -9 -33 -21 -22 -20 -23
-20 -37 -3 -17 20 -8 -2 9 -24 8 -10 12 -10 18 0 10 16 17 8 28 -28 l8 -29
-103 1 c-103 2 -131 10 -170 49 -13 13 -57 96 -52 98 24 12 39 23 39 30 -1 4
-1 17 -1 30 0 25 -21 41 -68 52 l-32 7 0 -161z m605 -281 c3 -5 1 -10 -4 -10
-6 0 -11 5 -11 10 0 6 2 10 4 10 3 0 8 -4 11 -10z m95 -60 c8 -5 11 -10 5 -10
-5 0 -17 5 -25 10 -8 5 -10 10 -5 10 6 0 17 -5 25 -10z m40 -20 c-20 -13 -33
-13 -25 0 3 6 14 10 23 10 15 0 15 -2 2 -10z"/>
<path d="M2500 690 c11 -36 23 -94 26 -130 7 -68 38 -145 54 -135 6 3 7 -1 4
-9 -3 -9 -1 -16 5 -16 6 0 8 -6 5 -14 -3 -7 2 -21 11 -30 9 -9 15 -23 12 -30
-3 -8 -3 -17 1 -21 4 -4 7 -10 8 -13 4 -35 18 -82 24 -82 5 0 18 -30 30 -66
13 -37 29 -78 36 -93 8 -14 14 -33 14 -41 0 -13 1 -13 10 0 8 12 10 12 10 1 0
-8 3 -12 6 -8 4 3 -4 22 -16 41 -12 20 -19 40 -15 46 3 5 1 10 -5 10 -7 0 -9
8 -5 20 4 12 1 27 -5 35 -7 8 -10 24 -7 36 7 27 -2 51 -16 42 -5 -3 -7 -1 -4
4 8 13 -16 76 -25 67 -4 -3 -4 3 -1 15 3 12 1 21 -6 21 -6 0 -11 4 -11 10 0
10 77 -16 94 -31 17 -15 -3 -22 -21 -8 -15 12 -15 12 -6 -4 5 -10 20 -24 34
-30 13 -7 25 -20 25 -30 2 -12 1 -13 -3 -2 -2 8 -10 15 -16 15 -12 0 -16 -57
-6 -75 4 -5 7 -25 7 -44 1 -29 16 -74 41 -121 5 -8 25 -16 47 -18 21 -1 34 1
29 5 -6 4 -16 25 -23 46 -11 32 -11 42 2 67 13 27 13 30 -2 30 -11 0 -13 3 -6
8 6 4 13 14 16 22 5 12 7 11 14 -5 11 -28 30 -45 48 -45 9 0 16 -7 16 -15 0
-8 7 -15 15 -15 18 0 20 -17 3 -23 -20 -7 6 -30 28 -25 10 2 28 -6 39 -17 l20
-20 3 23 c4 28 6 28 40 -8 l29 -30 247 0 246 0 0 83 0 83 -77 17 c-43 10 -101
17 -130 17 -28 0 -55 5 -58 10 -3 6 -17 10 -31 10 -13 0 -24 5 -24 10 0 6 -5
10 -11 10 -6 0 -41 14 -77 31 -37 17 -94 42 -127 56 -47 20 -177 80 -280 130
-5 3 5 -9 23 -25 23 -21 35 -42 38 -68 l5 -38 -22 20 c-22 19 -22 19 -14 -6
10 -34 33 -70 45 -70 6 0 10 -7 10 -15 0 -8 -5 -15 -11 -15 -23 0 -125 119
-160 186 -80 152 -122 222 -169 274 l-49 55 19 -65z m40 -35 c7 -9 8 -15 2
-15 -5 0 -12 7 -16 15 -3 8 -4 15 -2 15 2 0 9 -7 16 -15z m17 -67 c-3 -8 -6
-5 -6 6 -1 11 2 17 5 13 3 -3 4 -12 1 -19z m51 -85 c8 -24 8 -31 -1 -27 -7 2
-13 18 -14 36 -3 36 0 35 15 -9z m239 -268 c9 -24 -1 -27 -15 -5 -8 13 -8 20
-2 20 6 0 13 -7 17 -15z m247 -1 c18 -7 22 -34 6 -34 -6 0 -13 7 -16 15 -4 8
-10 12 -15 9 -5 -3 -9 0 -9 5 0 12 11 14 34 5z m-204 -13 c0 -5 9 -13 21 -16
11 -4 18 -13 15 -20 -3 -8 5 -16 20 -19 13 -4 24 -10 24 -15 0 -5 -16 -1 -35
7 -19 9 -30 19 -24 23 11 6 -18 24 -33 21 -5 -1 -8 5 -8 13 0 8 5 15 10 15 6
0 10 -4 10 -9z m140 -45 c0 -3 -4 -8 -10 -11 -5 -3 -10 -1 -10 4 0 6 5 11 10
11 6 0 10 -2 10 -4z m-10 -71 c0 -8 5 -15 10 -15 6 0 10 -4 10 -10 0 -5 -6 -7
-14 -4 -16 6 -29 44 -15 44 5 0 9 -7 9 -15z m-30 -15 c0 -5 -2 -10 -4 -10 -3
0 -8 5 -11 10 -3 6 -1 10 4 10 6 0 11 -4 11 -10z"/>
<path d="M658 653 c6 -2 18 -2 25 0 6 3 1 5 -13 5 -14 0 -19 -2 -12 -5z"/>
<path d="M2805 641 c-22 -10 -44 -17 -50 -17 -5 1 -14 -9 -20 -22 -5 -12 -15
-20 -21 -18 -13 5 -25 -37 -15 -52 7 -11 134 -76 171 -87 22 -7 23 -6 11 9 -9
11 -10 16 -2 16 7 0 10 4 7 9 -4 5 -1 11 5 13 6 2 13 15 14 28 2 14 7 39 10
56 6 26 2 35 -25 57 -37 32 -34 31 -85 8z"/>
<path d="M1018 573 c-28 -7 -31 -33 -3 -33 14 0 25 2 25 4 0 2 3 11 6 20 6 16
3 17 -28 9z"/>
<path d="M3562 443 c-17 -7 -5 -23 19 -23 10 0 19 7 19 15 0 15 -14 18 -38 8z"/>
<path d="M3145 430 c11 -5 36 -9 55 -9 28 0 31 2 15 9 -11 5 -36 9 -55 9 -28
0 -31 -2 -15 -9z"/>
<path d="M1082 410 c0 -14 2 -19 5 -12 2 6 2 18 0 25 -3 6 -5 1 -5 -13z"/>
<path d="M3258 423 c7 -3 16 -2 19 1 4 3 -2 6 -13 5 -11 0 -14 -3 -6 -6z"/>
<path d="M2977 399 c7 -7 15 -10 18 -7 3 3 -2 9 -12 12 -14 6 -15 5 -6 -5z"/>
<path d="M483 310 c-1 -11 4 -20 13 -20 8 0 14 9 14 20 0 11 -6 20 -13 20 -7
0 -13 -9 -14 -20z"/>
<path d="M550 310 c0 -5 5 -10 10 -10 6 0 10 5 10 10 0 6 -4 10 -10 10 -5 0
-10 -4 -10 -10z"/>
<path d="M2681 294 c0 -11 3 -14 6 -6 3 7 2 16 -1 19 -3 4 -6 -2 -5 -13z"/>
<path d="M1920 284 c-25 -7 -62 -16 -83 -19 -20 -3 -42 -12 -49 -18 -9 -10
-21 -11 -57 -1 -48 12 -78 3 -64 -20 10 -15 13 -40 5 -31 -4 4 -7 12 -7 18 0
25 -27 16 -69 -23 -38 -35 -44 -45 -35 -61 11 -22 35 -25 42 -6 2 6 8 9 12 5
4 -4 1 -14 -8 -22 -8 -8 -17 -13 -20 -10 -2 3 -1 -15 4 -38 4 -24 8 -46 9 -50
0 -5 113 -8 250 -8 240 0 250 1 250 19 0 11 3 21 8 23 4 2 21 34 37 72 17 39
31 72 32 75 2 4 -14 17 -35 31 -20 14 -39 28 -42 31 -13 16 -87 49 -110 48
-14 0 -45 -7 -70 -15z m100 2 c0 -2 -8 -10 -17 -17 -16 -13 -17 -12 -4 4 13
16 21 21 21 13z m20 -16 c0 -5 -5 -10 -11 -10 -5 0 -7 5 -4 10 3 6 8 10 11 10
2 0 4 -4 4 -10z m40 -18 c0 -4 -9 -8 -19 -8 -11 0 -17 4 -15 8 7 10 34 10 34
0z m-370 -26 c-7 -7 -13 -7 -20 0 -6 6 -3 10 10 10 13 0 16 -4 10 -10z m421
-12 c7 -9 8 -14 1 -14 -6 0 -13 6 -16 13 -5 9 -7 9 -12 -1 -6 -12 -24 -7 -24
6 0 14 39 11 51 -4z m-348 -1 c-7 -2 -19 -2 -25 0 -7 3 -2 5 12 5 14 0 19 -2
13 -5z m-133 -10 c0 -17 -19 -37 -27 -29 -4 5 -2 11 5 13 6 3 10 9 6 14 -3 5
0 9 5 9 6 0 11 -3 11 -7z m420 3 c0 -3 -4 -8 -10 -11 -5 -3 -10 -1 -10 4 0 6
5 11 10 11 6 0 10 -2 10 -4z m-376 -57 c-3 -5 -10 -7 -15 -3 -6 3 -8 -4 -6
-18 2 -12 2 -17 0 -11 -3 10 -10 10 -24 3 -13 -7 -19 -7 -19 0 0 5 6 10 13 10
7 0 18 9 25 20 7 12 17 18 22 15 6 -4 8 -11 4 -16z m-64 1 c0 -5 -2 -10 -4
-10 -3 0 -8 5 -11 10 -3 6 -1 10 4 10 6 0 11 -4 11 -10z m21 -63 c-10 -9 -11
-8 -5 6 3 10 9 15 12 12 3 -3 0 -11 -7 -18z m17 -42 c-3 -3 -9 2 -12 12 -6 14
-5 15 5 6 7 -7 10 -15 7 -18z m-38 -23 c0 -15 -2 -15 -10 -2 -13 20 -13 33 0
25 6 -3 10 -14 10 -23z"/>
<path d="M795 280 c-3 -5 1 -10 9 -10 9 0 16 5 16 10 0 6 -4 10 -9 10 -6 0
-13 -4 -16 -10z"/>
<path d="M3285 281 l-30 -7 25 -7 c36 -10 110 -9 110 2 0 8 -53 23 -69 20 -3
-1 -19 -4 -36 -8z"/>
<path d="M3419 288 c-9 -30 -5 -38 18 -38 17 0 23 4 20 13 -4 10 3 12 23 9 15
-2 30 0 33 5 3 5 -17 10 -44 11 -27 1 -49 1 -50 0z"/>
<path d="M475 260 c-3 -5 1 -10 10 -10 9 0 13 5 10 10 -3 6 -8 10 -10 10 -2 0
-7 -4 -10 -10z"/>
<path d="M533 250 c1 -11 5 -20 9 -20 4 0 8 9 8 20 0 11 -4 20 -9 20 -6 0 -9
-9 -8 -20z"/>
<path d="M630 260 c0 -5 5 -10 11 -10 5 0 7 5 4 10 -3 6 -8 10 -11 10 -2 0 -4
-4 -4 -10z"/>
<path d="M760 250 c0 -19 3 -21 12 -12 9 9 9 15 0 24 -9 9 -12 7 -12 -12z"/>
<path d="M3550 231 c-25 -7 -25 -7 9 -19 43 -15 41 -16 41 8 0 21 -8 23 -50
11z"/>
<path d="M756 212 c-12 -20 22 -34 51 -23 20 7 22 10 7 8 -11 -1 -28 4 -37 11
-9 8 -18 9 -21 4z"/>
<path d="M1073 165 c0 -27 2 -38 4 -22 2 15 2 37 0 50 -2 12 -4 0 -4 -28z"/>
<path d="M380 149 c-24 -7 -24 -7 -2 -8 25 -1 28 -11 10 -30 -11 -10 -8 -12
12 -9 14 1 25 8 25 13 0 6 4 15 8 21 9 15 -21 22 -53 13z"/>
<path d="M946 83 c-11 -11 -6 -23 9 -23 8 0 15 4 15 9 0 13 -16 22 -24 14z"/>
<path d="M1057 63 c-3 -16 -1 -32 4 -38 5 -5 9 5 9 28 0 44 -6 48 -13 10z"/>
<path d="M366 71 c-19 -7 -18 -8 5 -15 24 -7 24 -7 3 -16 -21 -8 -41 -40 -25
-40 5 0 11 7 15 15 7 20 24 19 29 -2 3 -12 5 -8 6 9 0 15 8 34 17 42 14 15 13
16 -8 15 -13 0 -32 -4 -42 -8z"/>
<path d="M410 20 c0 -11 5 -20 10 -20 6 0 10 9 10 20 0 11 -4 20 -10 20 -5 0
-10 -9 -10 -20z"/>
</g>
</svg>
